<svg width="65" height="65" viewBox="0 0 65 65" fill="none" xmlns="http://www.w3.org/2000/svg">
<mask id="mask0_1_5609" style="mask-type:luminance" maskUnits="userSpaceOnUse" x="0" y="4" width="65" height="58">
<path d="M64.66 4.90771H0.659973V61.2475H64.66V4.90771Z" fill="white"/>
</mask>
<g mask="url(#mask0_1_5609)">
<path d="M63.06 36.6647V29.5002L55.2733 27.4344C54.772 25.8757 54.068 24.3921 53.1827 23.0023L57.0333 16.6923L51.2733 11.6217L44.1053 15.0115C42.5267 14.2321 40.8413 13.6124 39.0707 13.1711L36.724 6.31641H28.5853L26.2387 13.1711C24.468 13.6124 22.7827 14.2321 21.204 15.0115L14.036 11.6217L8.27599 16.6923L12.1267 23.0023C11.2413 24.3921 10.5373 25.8757 10.036 27.4344L2.24933 29.5002V36.6647L10.036 38.7305C10.5373 40.2893 11.2413 41.7729 12.1267 43.1626L8.27599 49.4726L14.036 54.5432L21.204 51.1535C22.7827 51.9329 24.468 52.5526 26.2387 52.9939L28.5853 59.8486H36.724L39.0707 52.9939C40.8413 52.5526 42.5267 51.9329 44.1053 51.1535L51.2733 54.5432L57.0333 49.4726L53.1827 43.1626C54.068 41.7729 54.772 40.2893 55.2733 38.7305L63.06 36.6647ZM32.66 47.4163C23.668 47.4163 16.372 40.9936 16.372 33.0778C16.372 25.1621 23.668 18.7393 32.66 18.7393C41.652 18.7393 48.948 25.1621 48.948 33.0778C48.948 40.9936 41.652 47.4163 32.66 47.4163Z" stroke="#0262F2" stroke-width="2.25067" stroke-miterlimit="10" stroke-linecap="round"/>
<path d="M24.2546 33.0122L29.908 37.989L41.0653 28.167" stroke="#0262F2" stroke-width="2.25067" stroke-miterlimit="10" stroke-linecap="round"/>
</g>
</svg>
