<svg width="65" height="65" viewBox="0 0 65 65" fill="none" xmlns="http://www.w3.org/2000/svg">
<path d="M42.9213 44.0239L52.9907 38.2105V26.3492L42.7293 20.4292L32.66 26.2425L22.5906 20.4292L12.3293 26.3492V38.2105L22.3986 44.0239V55.6399L32.66 61.5705L42.9213 55.6399V44.0239Z" stroke="#0262F2" stroke-width="2.26133" stroke-linecap="round" stroke-linejoin="round"/>
<path d="M42.7293 20.4292V8.80259L32.66 2.98926L22.5906 8.80259V20.4292L32.66 26.2426L42.7293 20.4292Z" stroke="#0262F2" stroke-width="2.26133" stroke-linecap="round" stroke-linejoin="round"/>
<path d="M22.5906 8.80259L32.66 14.6159L42.7293 8.80259L32.66 2.98926L22.5906 8.80259Z" stroke="#0262F2" stroke-width="2.26133" stroke-linecap="round" stroke-linejoin="round"/>
<path d="M32.66 14.6157V26.2424" stroke="#0262F2" stroke-width="2.26133" stroke-linecap="round" stroke-linejoin="round"/>
<path d="M63.06 55.6398V44.0238L52.9906 38.2104L42.9213 44.0238V55.6398L52.9906 61.4531L63.06 55.6398Z" stroke="#0262F2" stroke-width="2.26133" stroke-linecap="round" stroke-linejoin="round"/>
<path d="M42.9213 44.0238L52.9906 49.8264L63.06 44.0238L52.9906 38.2104L42.9213 44.0238Z" stroke="#0262F2" stroke-width="2.26133" stroke-linecap="round" stroke-linejoin="round"/>
<path d="M52.9906 49.8267V61.4532" stroke="#0262F2" stroke-width="2.26133" stroke-linecap="round" stroke-linejoin="round"/>
<path d="M22.3986 55.6398V44.0238L12.3293 38.2104L2.25998 44.0238V55.6398L12.3293 61.4531L22.3986 55.6398Z" stroke="#0262F2" stroke-width="2.26133" stroke-linecap="round" stroke-linejoin="round"/>
<path d="M2.25998 44.0238L12.3293 49.8264L22.3986 44.0238L12.3293 38.2104L2.25998 44.0238Z" stroke="#0262F2" stroke-width="2.26133" stroke-linecap="round" stroke-linejoin="round"/>
<path d="M12.3293 49.8267V61.4532" stroke="#0262F2" stroke-width="2.26133" stroke-linecap="round" stroke-linejoin="round"/>
</svg>
