<svg width="65" height="65" viewBox="0 0 65 65" fill="none" xmlns="http://www.w3.org/2000/svg">
<mask id="mask0_1_5548" style="mask-type:luminance" maskUnits="userSpaceOnUse" x="0" y="0" width="65" height="65">
<path d="M64.33 0.279785H0.329987V64.2798H64.33V0.279785Z" fill="white"/>
</mask>
<g mask="url(#mask0_1_5548)">
<path d="M9.82332 9.98631C11.0427 9.98631 12.0313 8.99776 12.0313 7.77831C12.0313 6.55887 11.0427 5.57031 9.82332 5.57031C8.60387 5.57031 7.61532 6.55887 7.61532 7.77831C7.61532 8.99776 8.60387 9.98631 9.82332 9.98631Z" fill="#0262F2"/>
<path d="M16.5753 9.98631C17.7947 9.98631 18.7833 8.99776 18.7833 7.77831C18.7833 6.55887 17.7947 5.57031 16.5753 5.57031C15.3559 5.57031 14.3673 6.55887 14.3673 7.77831C14.3673 8.99776 15.3559 9.98631 16.5753 9.98631Z" fill="#0262F2"/>
<path d="M23.3166 9.98631C24.5361 9.98631 25.5247 8.99776 25.5247 7.77831C25.5247 6.55887 24.5361 5.57031 23.3166 5.57031C22.0972 5.57031 21.1087 6.55887 21.1087 7.77831C21.1087 8.99776 22.0972 9.98631 23.3166 9.98631Z" fill="#0262F2"/>
<path d="M56.2447 1.87988H8.41532C4.83357 1.87988 1.92999 4.78347 1.92999 8.36522V56.1946C1.92999 59.7763 4.83357 62.6799 8.41532 62.6799H56.2447C59.8264 62.6799 62.73 59.7763 62.73 56.1946V8.36522C62.73 4.78347 59.8264 1.87988 56.2447 1.87988Z" stroke="#0262F2" stroke-width="2.25067" stroke-miterlimit="10" stroke-linecap="round"/>
<path d="M1.92999 13.5063H62.73" stroke="#0262F2" stroke-width="2.25067" stroke-miterlimit="10" stroke-linecap="round"/>
<path d="M30.8793 37.1652L10.4633 29.6452C9.75932 29.3892 9.75932 28.3972 10.4633 28.1412L30.8793 20.6212C31.8073 20.2799 32.842 20.2799 33.77 20.6212L54.186 28.1412C54.89 28.3972 54.89 29.3892 54.186 29.6452L33.77 37.1652C32.842 37.5066 31.8073 37.5066 30.8793 37.1652Z" stroke="#0262F2" stroke-width="2.25067" stroke-miterlimit="10" stroke-linecap="round"/>
<path d="M44.65 33.165L54.186 36.6744C54.89 36.9304 54.89 37.9224 54.186 38.1784L33.77 45.6984C32.842 46.0397 31.8073 46.0397 30.8793 45.6984L10.4633 38.1784C9.75932 37.9224 9.75932 36.9304 10.4633 36.6744L19.9993 33.165" stroke="#0262F2" stroke-width="2.25067" stroke-miterlimit="10" stroke-linecap="round"/>
<path d="M44.65 41.688L54.186 45.1973C54.89 45.4533 54.89 46.4453 54.186 46.7013L33.77 54.2213C32.842 54.5627 31.8073 54.5627 30.8793 54.2213L10.4633 46.7013C9.75932 46.4453 9.75932 45.4533 10.4633 45.1973L19.9993 41.688" stroke="#0262F2" stroke-width="2.25067" stroke-miterlimit="10" stroke-linecap="round"/>
</g>
</svg>
