<svg width="157" height="49" viewBox="0 0 157 49" fill="none" xmlns="http://www.w3.org/2000/svg">
<rect x="0.5" y="1" width="156" height="47" rx="23.5" fill="#13171B"/>
<rect x="0.5" y="1" width="156" height="47" rx="23.5" stroke="#323745"/>
<path d="M28.0727 21.1367H25.9971V19.4446H28.0727V16.2183H29.9227V19.4446H32.8331V21.1367H29.9227V27.9276C29.9227 28.4089 30.013 28.7548 30.1935 28.9654C30.389 29.1609 30.7199 29.2587 31.1862 29.2587H33.1941V30.9508H31.0733C29.9904 30.9508 29.2158 30.7101 28.7495 30.2288C28.2983 29.7475 28.0727 28.9879 28.0727 27.9501V21.1367Z" fill="#F1EFED"/>
<path d="M39.1547 31.0861C38.0417 31.0861 37.049 30.838 36.1766 30.3416C35.3193 29.8453 34.65 29.1534 34.1687 28.266C33.6874 27.3786 33.4467 26.3558 33.4467 25.1977C33.4467 24.0395 33.6874 23.0167 34.1687 22.1293C34.65 21.2419 35.3193 20.5501 36.1766 20.0537C37.049 19.5574 38.0417 19.3092 39.1547 19.3092C40.2677 19.3092 41.2529 19.5574 42.1102 20.0537C42.9826 20.5501 43.6594 21.2419 44.1407 22.1293C44.622 23.0167 44.8627 24.0395 44.8627 25.1977C44.8627 26.3558 44.622 27.3786 44.1407 28.266C43.6594 29.1534 42.9826 29.8453 42.1102 30.3416C41.2529 30.838 40.2677 31.0861 39.1547 31.0861ZM39.1547 29.4392C39.9067 29.4392 40.5685 29.2587 41.1401 28.8977C41.7266 28.5367 42.1779 28.0329 42.4937 27.3861C42.8096 26.7393 42.9675 26.0099 42.9675 25.1977C42.9675 24.3855 42.8096 23.656 42.4937 23.0092C42.1779 22.3625 41.7266 21.8586 41.1401 21.4976C40.5685 21.1366 39.9067 20.9562 39.1547 20.9562C38.4026 20.9562 37.7333 21.1366 37.1467 21.4976C36.5752 21.8586 36.1315 22.3625 35.8156 23.0092C35.4998 23.656 35.3418 24.3855 35.3418 25.1977C35.3418 26.0099 35.4998 26.7393 35.8156 27.3861C36.1315 28.0329 36.5752 28.5367 37.1467 28.8977C37.7333 29.2587 38.4026 29.4392 39.1547 29.4392Z" fill="#F1EFED"/>
<path d="M57.5327 19.4446V30.3867C57.5327 33.8612 55.6301 35.5984 51.8247 35.5984C50.3357 35.5984 49.1174 35.26 48.1698 34.5831C47.2373 33.9063 46.6958 32.9437 46.5454 31.6953H48.4406C48.591 32.4172 48.9745 32.9738 49.5912 33.3648C50.2079 33.7559 50.9975 33.9514 51.9601 33.9514C54.4418 33.9514 55.6827 32.7406 55.6827 30.3191V28.9654C54.8555 30.3792 53.5394 31.0861 51.7345 31.0861C50.6666 31.0861 49.7115 30.853 48.8692 30.3867C48.042 29.9205 47.3877 29.2436 46.9064 28.3562C46.4401 27.4688 46.207 26.416 46.207 25.1977C46.207 24.0395 46.4401 23.0167 46.9064 22.1293C47.3877 21.2419 48.0495 20.5501 48.8918 20.0537C49.7341 19.5574 50.6816 19.3092 51.7345 19.3092C52.667 19.3092 53.4642 19.4972 54.126 19.8732C54.7878 20.2342 55.3067 20.7531 55.6827 21.4299L55.9309 19.4446H57.5327ZM51.915 29.4392C52.652 29.4392 53.3063 29.2662 53.8778 28.9203C54.4644 28.5593 54.9156 28.0629 55.2315 27.4312C55.5473 26.7845 55.7053 26.055 55.7053 25.2428C55.7053 24.4155 55.5473 23.6785 55.2315 23.0318C54.9156 22.37 54.4644 21.8586 53.8778 21.4976C53.3063 21.1366 52.652 20.9562 51.915 20.9562C50.7719 20.9562 49.8469 21.3547 49.14 22.1519C48.4481 22.934 48.1021 23.9493 48.1021 25.1977C48.1021 26.4461 48.4481 27.4688 49.14 28.266C49.8469 29.0481 50.7719 29.4392 51.915 29.4392Z" fill="#F1EFED"/>
<path d="M59.2758 25.1977C59.2758 24.0245 59.5014 22.9942 59.9526 22.1068C60.4189 21.2194 61.0656 20.535 61.8929 20.0537C62.7201 19.5574 63.6677 19.3092 64.7356 19.3092C65.7884 19.3092 66.721 19.5273 67.5332 19.9635C68.3454 20.3996 68.9846 21.0314 69.4509 21.8586C69.9171 22.6858 70.1653 23.656 70.1954 24.769C70.1954 24.9344 70.1803 25.1977 70.1503 25.5586H61.216V25.7166C61.2461 26.8446 61.592 27.7471 62.2538 28.4239C62.9156 29.1008 63.7805 29.4392 64.8484 29.4392C65.6756 29.4392 66.375 29.2361 66.9466 28.83C67.5332 28.4089 67.9242 27.8298 68.1198 27.0928H69.9923C69.7667 28.266 69.2027 29.2286 68.3002 29.9806C67.3978 30.7176 66.2923 31.0861 64.9837 31.0861C63.8406 31.0861 62.8404 30.8455 61.9831 30.3642C61.1258 29.8678 60.4565 29.176 59.9752 28.2885C59.5089 27.3861 59.2758 26.3558 59.2758 25.1977ZM68.2777 24.0245C68.1874 23.0468 67.8189 22.2873 67.1722 21.7458C66.5405 21.2043 65.7358 20.9336 64.7581 20.9336C63.8858 20.9336 63.1187 21.2194 62.4569 21.7909C61.7951 22.3625 61.4191 23.107 61.3288 24.0245H68.2777Z" fill="#F1EFED"/>
<path d="M72.5703 21.1367H70.4947V19.4446H72.5703V16.2183H74.4203V19.4446H77.3307V21.1367H74.4203V27.9276C74.4203 28.4089 74.5106 28.7548 74.6911 28.9654C74.8866 29.1609 75.2175 29.2587 75.6838 29.2587H77.6917V30.9508H75.571C74.488 30.9508 73.7134 30.7101 73.2472 30.2288C72.7959 29.7475 72.5703 28.9879 72.5703 27.9501V21.1367Z" fill="#F1EFED"/>
<path d="M84.2771 19.3092C85.6759 19.3092 86.804 19.7303 87.6613 20.5726C88.5186 21.4149 88.9473 22.7385 88.9473 24.5434V30.9508H87.0973V24.6562C87.0973 23.468 86.8265 22.5655 86.2851 21.9489C85.7436 21.3171 84.969 21.0013 83.9613 21.0013C82.8934 21.0013 82.0436 21.3773 81.4119 22.1293C80.7952 22.8814 80.4868 23.9042 80.4868 25.1977V30.9508H78.6368V15.1579H80.4868V21.3397C80.8629 20.7381 81.3592 20.2492 81.9759 19.8732C82.6076 19.4972 83.3747 19.3092 84.2771 19.3092Z" fill="#F1EFED"/>
<path d="M90.5284 25.1977C90.5284 24.0245 90.754 22.9942 91.2052 22.1068C91.6715 21.2194 92.3182 20.535 93.1455 20.0537C93.9727 19.5574 94.9203 19.3092 95.9882 19.3092C97.041 19.3092 97.9736 19.5273 98.7858 19.9635C99.598 20.3996 100.237 21.0314 100.703 21.8586C101.17 22.6858 101.418 23.656 101.448 24.769C101.448 24.9344 101.433 25.1977 101.403 25.5586H92.4686V25.7166C92.4987 26.8446 92.8446 27.7471 93.5064 28.4239C94.1682 29.1008 95.0331 29.4392 96.101 29.4392C96.9282 29.4392 97.6276 29.2361 98.1992 28.83C98.7858 28.4089 99.1768 27.8298 99.3723 27.0928H101.245C101.019 28.266 100.455 29.2286 99.5528 29.9806C98.6504 30.7176 97.5449 31.0861 96.2363 31.0861C95.0932 31.0861 94.093 30.8455 93.2357 30.3642C92.3784 29.8678 91.7091 29.176 91.2278 28.2885C90.7615 27.3861 90.5284 26.3558 90.5284 25.1977ZM99.5303 24.0245C99.44 23.0468 99.0715 22.2873 98.4248 21.7458C97.7931 21.2043 96.9884 20.9336 96.0107 20.9336C95.1384 20.9336 94.3713 21.2194 93.7095 21.7909C93.0477 22.3625 92.6717 23.107 92.5814 24.0245H99.5303Z" fill="#F1EFED"/>
<path d="M109.031 19.4446V21.2495H108.106C107.008 21.2495 106.219 21.618 105.737 22.355C105.271 23.092 105.038 24.0019 105.038 25.0849V30.9508H103.188V19.4446H104.79L105.038 21.1818C105.369 20.6553 105.798 20.2342 106.324 19.9183C106.85 19.6025 107.58 19.4446 108.512 19.4446H109.031Z" fill="#F1EFED"/>
<path d="M127.875 29.2587V30.9508H126.859C126.122 30.9508 125.596 30.8004 125.28 30.4995C124.964 30.1987 124.799 29.755 124.784 29.1684C123.896 30.4469 122.61 31.0861 120.926 31.0861C119.647 31.0861 118.617 30.7853 117.835 30.1837C117.068 29.5821 116.684 28.7623 116.684 27.7245C116.684 26.5664 117.075 25.679 117.858 25.0623C118.655 24.4456 119.805 24.1373 121.309 24.1373H124.694V23.3476C124.694 22.5956 124.438 22.009 123.927 21.5879C123.43 21.1667 122.731 20.9562 121.828 20.9562C121.031 20.9562 120.369 21.1366 119.843 21.4976C119.332 21.8436 119.016 22.3098 118.895 22.8964H117.045C117.181 21.7684 117.677 20.8885 118.534 20.2568C119.407 19.625 120.535 19.3092 121.919 19.3092C123.393 19.3092 124.528 19.6702 125.325 20.3921C126.137 21.099 126.544 22.1218 126.544 23.4604V28.4239C126.544 28.9804 126.799 29.2587 127.311 29.2587H127.875ZM124.694 25.694H121.129C119.414 25.694 118.557 26.3332 118.557 27.6117C118.557 28.1833 118.783 28.642 119.234 28.9879C119.685 29.3339 120.294 29.5069 121.061 29.5069C122.189 29.5069 123.077 29.2136 123.723 28.627C124.37 28.0253 124.694 27.2357 124.694 26.258V25.694Z" fill="#F1EFED"/>
<path d="M129.851 15C130.197 15 130.483 15.1128 130.708 15.3384C130.934 15.564 131.047 15.8498 131.047 16.1957C131.047 16.5417 130.934 16.8275 130.708 17.0531C130.483 17.2787 130.197 17.3915 129.851 17.3915C129.505 17.3915 129.219 17.2787 128.994 17.0531C128.768 16.8275 128.655 16.5417 128.655 16.1957C128.655 15.8498 128.768 15.564 128.994 15.3384C129.219 15.1128 129.505 15 129.851 15ZM128.926 19.4446H130.776V30.9508H128.926V19.4446Z" fill="#F1EFED"/>
<path d="M113.067 29.1988C113.067 30.1664 112.273 30.9508 111.294 30.9508C110.314 30.9508 109.521 30.1664 109.521 29.1988C109.521 28.2312 110.314 27.4468 111.294 27.4468C112.273 27.4468 113.067 28.2312 113.067 29.1988Z" fill="#0F6FFF"/>
</svg>
